<svg width="512" height="512" viewBox="0 0 512 512" xmlns="http://www.w3.org/2000/svg" version="1.1">
    <path fill="#4285F4"
          d="m495.78001,261.56075c0,-17.34957 -1.55701,-34.03186 -4.44861,-50.04685l-230.43793,0l0,94.75537l131.67882,0c-5.78319,30.47297 -23.13277,56.2749 -49.15713,73.62448l0,61.61323l79.40767,0c46.26553,-42.70664 72.95718,-105.43203 72.95718,-179.94623z"/>
    <path fill="#34A853"
          d="m260.89347,500.67347c66.06184,0 121.44702,-21.79818 161.92936,-59.1665l-79.40767,-61.61323c-21.79818,14.68041 -49.60199,23.57763 -82.52169,23.57763c-63.61511,0 -117.6657,-42.92907 -137.01715,-100.76099l-81.40954,0l0,63.17024c40.25991,79.85253 122.7816,134.79285 218.42669,134.79285z"/>
    <path fill="#FBBC05"
          d="m123.87632,302.48795c-4.89347,-14.68041 -7.78507,-30.25054 -7.78507,-46.48796s2.8916,-31.80755 7.78507,-46.48796l0,-63.17024l-81.40954,0c-16.68228,32.9197 -26.24679,70.06559 -26.24679,109.65821s9.56451,76.7385 26.24679,109.65821l63.39268,-49.37956l18.01687,-13.79069z"/>
    <path fill="#EA4335"
          d="m260.89347,108.75104c36.03373,0 68.06371,12.4561 93.64321,36.47859l70.06559,-70.06559c-42.48421,-39.59262 -97.64696,-63.83754 -163.7088,-63.83754c-95.64509,0 -178.16678,54.94032 -218.42669,135.01528l81.40954,63.17024c19.35145,-57.83191 73.40204,-100.76099 137.01715,-100.76099z"/>
</svg>
